<?xml version="1.0" encoding="UTF-8"?>
<!-- Do not edit this file with editors other than draw.io -->
<!DOCTYPE svg PUBLIC "-//W3C//DTD SVG 1.1//EN" "http://www.w3.org/Graphics/SVG/1.1/DTD/svg11.dtd">
<svg xmlns="http://www.w3.org/2000/svg" xmlns:xlink="http://www.w3.org/1999/xlink" version="1.1" width="908px" height="836px" viewBox="-0.5 -0.5 908 836" content="&lt;mxfile host=&quot;app.diagrams.net&quot; agent=&quot;Mozilla/5.0 (Windows NT 10.0; Win64; x64; rv:128.0) Gecko/20100101 Firefox/128.0&quot; version=&quot;24.7.5&quot; scale=&quot;3&quot; border=&quot;0&quot;&gt;&#xA;  &lt;diagram name=&quot;Page-1&quot; id=&quot;hsk624WQB-zvpRk25Bit&quot;&gt;&#xA;    &lt;mxGraphModel dx=&quot;1210&quot; dy=&quot;560&quot; grid=&quot;1&quot; gridSize=&quot;10&quot; guides=&quot;1&quot; tooltips=&quot;1&quot; connect=&quot;1&quot; arrows=&quot;1&quot; fold=&quot;1&quot; page=&quot;1&quot; pageScale=&quot;1&quot; pageWidth=&quot;827&quot; pageHeight=&quot;1169&quot; math=&quot;0&quot; shadow=&quot;0&quot;&gt;&#xA;      &lt;root&gt;&#xA;        &lt;mxCell id=&quot;0&quot; /&gt;&#xA;        &lt;mxCell id=&quot;1&quot; parent=&quot;0&quot; /&gt;&#xA;        &lt;mxCell id=&quot;v9cHNtUJd11W1hqlJB93-28&quot; value=&quot;&quot; style=&quot;endArrow=none;html=1;rounded=0;strokeWidth=3;&quot; parent=&quot;1&quot; edge=&quot;1&quot;&gt;&#xA;          &lt;mxGeometry width=&quot;50&quot; height=&quot;50&quot; relative=&quot;1&quot; as=&quot;geometry&quot;&gt;&#xA;            &lt;mxPoint x=&quot;508&quot; y=&quot;612.5&quot; as=&quot;sourcePoint&quot; /&gt;&#xA;            &lt;mxPoint x=&quot;458&quot; y=&quot;542.5&quot; as=&quot;targetPoint&quot; /&gt;&#xA;          &lt;/mxGeometry&gt;&#xA;        &lt;/mxCell&gt;&#xA;        &lt;mxCell id=&quot;v9cHNtUJd11W1hqlJB93-29&quot; value=&quot;&quot; style=&quot;endArrow=none;html=1;rounded=0;strokeWidth=3;&quot; parent=&quot;1&quot; edge=&quot;1&quot;&gt;&#xA;          &lt;mxGeometry width=&quot;50&quot; height=&quot;50&quot; relative=&quot;1&quot; as=&quot;geometry&quot;&gt;&#xA;            &lt;mxPoint x=&quot;373&quot; y=&quot;612.5&quot; as=&quot;sourcePoint&quot; /&gt;&#xA;            &lt;mxPoint x=&quot;423&quot; y=&quot;542.5&quot; as=&quot;targetPoint&quot; /&gt;&#xA;          &lt;/mxGeometry&gt;&#xA;        &lt;/mxCell&gt;&#xA;        &lt;mxCell id=&quot;v9cHNtUJd11W1hqlJB93-6&quot; value=&quot;&quot; style=&quot;ellipse;whiteSpace=wrap;html=1;aspect=fixed;fillColor=#f0db4f;strokeWidth=3;&quot; parent=&quot;1&quot; vertex=&quot;1&quot;&gt;&#xA;          &lt;mxGeometry x=&quot;293&quot; y=&quot;585.36&quot; width=&quot;135&quot; height=&quot;135&quot; as=&quot;geometry&quot; /&gt;&#xA;        &lt;/mxCell&gt;&#xA;        &lt;mxCell id=&quot;v9cHNtUJd11W1hqlJB93-1&quot; value=&quot;&quot; style=&quot;ellipse;whiteSpace=wrap;html=1;aspect=fixed;fillColor=#00ADD8;gradientColor=none;strokeWidth=3;&quot; parent=&quot;1&quot; vertex=&quot;1&quot;&gt;&#xA;          &lt;mxGeometry x=&quot;452&quot; y=&quot;585&quot; width=&quot;135&quot; height=&quot;135&quot; as=&quot;geometry&quot; /&gt;&#xA;        &lt;/mxCell&gt;&#xA;        &lt;mxCell id=&quot;5-ozF8vy6rtWnurFYdc3-2&quot; value=&quot;&quot; style=&quot;verticalAlign=top;verticalLabelPosition=bottom;labelPosition=center;align=center;html=1;outlineConnect=0;fillColor=default;strokeColor=default;gradientDirection=north;strokeWidth=2;shape=mxgraph.networks.pc;shadow=0;&quot; parent=&quot;1&quot; vertex=&quot;1&quot;&gt;&#xA;          &lt;mxGeometry x=&quot;469.5&quot; y=&quot;617.86&quot; width=&quot;100&quot; height=&quot;70&quot; as=&quot;geometry&quot; /&gt;&#xA;        &lt;/mxCell&gt;&#xA;        &lt;mxCell id=&quot;5-ozF8vy6rtWnurFYdc3-4&quot; value=&quot;&quot; style=&quot;verticalAlign=top;verticalLabelPosition=bottom;labelPosition=center;align=center;html=1;outlineConnect=0;fillColor=default;strokeColor=default;gradientDirection=north;strokeWidth=2;shape=mxgraph.networks.mobile;aspect=fixed;&quot; parent=&quot;1&quot; vertex=&quot;1&quot;&gt;&#xA;          &lt;mxGeometry x=&quot;366&quot; y=&quot;591&quot; width=&quot;50&quot; height=&quot;100&quot; as=&quot;geometry&quot; /&gt;&#xA;        &lt;/mxCell&gt;&#xA;        &lt;mxCell id=&quot;5-ozF8vy6rtWnurFYdc3-5&quot; value=&quot;&quot; style=&quot;verticalAlign=top;verticalLabelPosition=bottom;labelPosition=center;align=center;html=1;outlineConnect=0;fillColor=default;strokeColor=default;gradientDirection=north;strokeWidth=2;shape=mxgraph.networks.laptop;&quot; parent=&quot;1&quot; vertex=&quot;1&quot;&gt;&#xA;          &lt;mxGeometry x=&quot;287&quot; y=&quot;612.5&quot; width=&quot;100&quot; height=&quot;55&quot; as=&quot;geometry&quot; /&gt;&#xA;        &lt;/mxCell&gt;&#xA;        &lt;mxCell id=&quot;5-ozF8vy6rtWnurFYdc3-3&quot; value=&quot;&quot; style=&quot;verticalAlign=top;verticalLabelPosition=bottom;labelPosition=center;align=center;html=1;outlineConnect=0;fillColor=default;strokeColor=default;gradientDirection=north;strokeWidth=2;shape=mxgraph.networks.gamepad;&quot; parent=&quot;1&quot; vertex=&quot;1&quot;&gt;&#xA;          &lt;mxGeometry x=&quot;307&quot; y=&quot;656.14&quot; width=&quot;100&quot; height=&quot;70&quot; as=&quot;geometry&quot; /&gt;&#xA;        &lt;/mxCell&gt;&#xA;        &lt;mxCell id=&quot;v9cHNtUJd11W1hqlJB93-7&quot; value=&quot;&quot; style=&quot;ellipse;whiteSpace=wrap;html=1;aspect=fixed;fillColor=#f0db4f;gradientColor=#00ADD8;gradientDirection=east;strokeWidth=3;&quot; parent=&quot;1&quot; vertex=&quot;1&quot;&gt;&#xA;          &lt;mxGeometry x=&quot;373&quot; y=&quot;450&quot; width=&quot;135&quot; height=&quot;135&quot; as=&quot;geometry&quot; /&gt;&#xA;        &lt;/mxCell&gt;&#xA;        &lt;mxCell id=&quot;v9cHNtUJd11W1hqlJB93-8&quot; value=&quot;&quot; style=&quot;sketch=0;outlineConnect=0;fontColor=#232F3E;gradientColor=none;fillColor=#000000;strokeColor=none;dashed=0;verticalLabelPosition=bottom;verticalAlign=top;align=center;html=1;fontSize=12;fontStyle=0;aspect=fixed;pointerEvents=1;shape=mxgraph.aws4.cloud_digital_interface;&quot; parent=&quot;1&quot; vertex=&quot;1&quot;&gt;&#xA;          &lt;mxGeometry x=&quot;401.5&quot; y=&quot;478.5&quot; width=&quot;78&quot; height=&quot;78&quot; as=&quot;geometry&quot; /&gt;&#xA;        &lt;/mxCell&gt;&#xA;      &lt;/root&gt;&#xA;    &lt;/mxGraphModel&gt;&#xA;  &lt;/diagram&gt;&#xA;&lt;/mxfile&gt;&#xA;"><defs><linearGradient x1="0%" y1="0%" x2="100%" y2="0%" id="mx-gradient-f0db4f-1-00add8-1-e-0"><stop offset="0%" style="stop-color: rgb(240, 219, 79); stop-opacity: 1;"/><stop offset="100%" style="stop-color: rgb(0, 173, 216); stop-opacity: 1;"/></linearGradient></defs><g><g data-cell-id="0"><g data-cell-id="1"><g data-cell-id="v9cHNtUJd11W1hqlJB93-28"><g><path d="M 666 490.5 L 516 280.5" fill="none" stroke="rgb(0, 0, 0)" stroke-width="9" stroke-miterlimit="10" pointer-events="stroke"/></g></g><g data-cell-id="v9cHNtUJd11W1hqlJB93-29"><g><path d="M 261 490.5 L 411 280.5" fill="none" stroke="rgb(0, 0, 0)" stroke-width="9" stroke-miterlimit="10" pointer-events="stroke"/></g></g><g data-cell-id="v9cHNtUJd11W1hqlJB93-6"><g><ellipse cx="223.5" cy="611.58" rx="202.5" ry="202.5" fill="#f0db4f" stroke="rgb(0, 0, 0)" stroke-width="9" pointer-events="all"/></g></g><g data-cell-id="v9cHNtUJd11W1hqlJB93-1"><g><ellipse cx="700.5" cy="610.5" rx="202.5" ry="202.5" fill="#00add8" stroke="rgb(0, 0, 0)" stroke-width="9" pointer-events="all"/></g></g><g data-cell-id="5-ozF8vy6rtWnurFYdc3-2"><g><rect x="550.5" y="506.58" width="90" height="180" rx="6" ry="6" fill="rgb(255, 255, 255)" stroke="rgb(0, 0, 0)" stroke-width="6" pointer-events="all"/><path d="M 550.5 536.58 L 640.5 536.58 M 550.5 596.58 L 640.5 596.58" fill="none" stroke="rgb(0, 0, 0)" stroke-width="6" stroke-linejoin="round" stroke-miterlimit="10" pointer-events="all"/><rect x="610.5" y="521.58" width="240" height="135" fill="rgb(255, 255, 255)" stroke="rgb(0, 0, 0)" stroke-width="6" pointer-events="all"/><rect x="700.5" y="656.58" width="60" height="30" fill="rgb(255, 255, 255)" stroke="rgb(0, 0, 0)" stroke-width="6" pointer-events="all"/><path d="M 655.5 683.58 L 805.5 683.58 L 835.5 716.58 L 625.5 716.58 Z" fill="rgb(255, 255, 255)" stroke="rgb(0, 0, 0)" stroke-width="6" stroke-linejoin="round" stroke-miterlimit="10" pointer-events="all"/><path d="M 697.5 709.08 L 751.5 709.08 M 658.5 700.08 L 775.5 700.08 M 664.5 691.08 L 772.5 691.08 M 781.5 691.08 L 802.5 691.08 M 787.5 700.08 L 808.5 700.08 M 793.5 709.08 L 814.5 709.08" fill="none" stroke="rgb(0, 0, 0)" stroke-width="6" stroke-linejoin="round" stroke-miterlimit="10" pointer-events="all"/><rect x="619.5" y="530.58" width="219" height="117" fill="#ffffff" stroke="none" pointer-events="all"/><ellipse cx="565.5" cy="611.58" rx="6" ry="6" fill="#ffffff" stroke="none" pointer-events="all"/></g></g><g data-cell-id="5-ozF8vy6rtWnurFYdc3-4"><g><path d="M 240 454.5 C 240 438.76 252.41 426 267.72 426 L 362.57 426 C 377.77 426.16 390 438.88 390 454.5 L 390 697.5 C 390 713.12 377.77 725.84 362.57 726 L 267.72 726 C 252.41 726 240 713.24 240 697.5 Z" fill="rgb(255, 255, 255)" stroke="rgb(0, 0, 0)" stroke-width="5.84" stroke-miterlimit="10" pointer-events="all"/><path d="M 245.84 453 L 245.84 699 L 384.16 699.36 L 384.16 453 Z" fill="#ffffff" stroke="none" pointer-events="all"/><rect x="296.91" y="707.4" width="35.89" height="10.8" rx="5.4" ry="5.4" fill="#ffffff" stroke="none" pointer-events="all"/></g></g><g data-cell-id="5-ozF8vy6rtWnurFYdc3-5"><g><path d="M 44.85 603.21 L 260.44 603.21 L 303 655.5 L 3 655.5 Z M 52.51 490.5 L 252.01 490.5 L 257.93 601.93 L 46.6 601.93 Z" fill="rgb(255, 255, 255)" stroke="rgb(0, 0, 0)" stroke-width="5.71" stroke-linejoin="round" stroke-miterlimit="10" pointer-events="all"/><path d="M 53.99 616.21 L 254.97 616.21 M 40.68 630.5 L 268.27 630.5 M 98.32 643.36 L 201.77 643.36" fill="none" stroke="rgb(0, 0, 0)" stroke-width="5.71" stroke-linejoin="round" stroke-miterlimit="10" pointer-events="all"/><path d="M 62.26 500.5 L 242.56 500.5 L 247.58 591.93 L 56.94 591.93 Z" fill="#ffffff" stroke="none" pointer-events="all"/></g></g><g data-cell-id="5-ozF8vy6rtWnurFYdc3-3"><g><path d="M 131.86 629.75 C 142.98 622.22 157.43 621.47 169.29 627.8 L 192.76 636.65 C 206.2 641.82 221.09 642.03 234.68 637.24 L 256.11 627.8 C 268.21 621.42 282.81 621.79 294.56 628.77 C 309.77 637.4 322.08 650.23 329.98 665.68 C 341.19 684.28 349.75 704.32 355.43 725.22 C 360.42 742.33 362.77 760.07 362.4 777.86 C 362.99 791.75 360.27 805.57 354.44 818.22 C 347.9 827.89 335.2 831.43 324.5 826.58 C 313.87 822.17 303.95 816.27 295.04 809.07 C 277.13 781.81 245.54 766.41 212.7 768.92 C 197.31 768.99 182.2 772.95 168.81 780.43 C 159.61 786.19 151.08 792.92 143.36 800.51 C 134.9 809.3 125.38 817.04 115.01 823.54 C 106.41 827.54 96.96 829.46 87.46 829.15 C 76.11 827.42 67.33 816.05 66.5 801.99 C 63 782.92 63.33 763.35 67.49 744.41 C 71.46 722.01 78.69 700.3 88.96 679.94 C 97.35 659.05 112.41 641.43 131.86 629.75 Z M 150.34 658.5 C 127.3 658.83 108.85 677.42 109.02 700.13 C 110.12 721.92 128.21 739.11 150.34 739.4 C 172.34 738.96 190.26 721.81 191.35 700.13 C 191.52 677.53 173.25 658.99 150.34 658.5 Z M 150.34 677.4 C 156.4 677.39 162.2 679.81 166.43 684.09 C 170.66 688.37 172.95 694.16 172.79 700.13 C 172.47 712.13 162.51 721.69 150.34 721.68 C 138.05 721.85 127.91 712.24 127.58 700.13 C 127.42 694.1 129.75 688.27 134.05 683.98 C 138.34 679.69 144.22 677.31 150.34 677.4 Z M 276.68 681.82 C 276.68 684.23 277.67 686.52 279.42 688.19 C 281.17 689.86 283.53 690.76 285.96 690.68 C 288.45 690.85 290.89 689.99 292.71 688.31 C 294.52 686.63 295.55 684.28 295.54 681.82 C 295.82 679.22 294.91 676.63 293.06 674.75 C 291.21 672.87 288.61 671.89 285.96 672.08 C 283.37 671.98 280.85 673 279.07 674.87 C 277.29 676.74 276.42 679.27 276.68 681.82 Z M 257.82 699.54 C 252.86 699.54 248.84 703.5 248.84 708.4 C 248.67 710.85 249.54 713.25 251.25 715.04 C 252.95 716.84 255.33 717.85 257.82 717.84 C 260.51 718.21 263.22 717.35 265.2 715.52 C 267.18 713.68 268.21 711.07 268 708.4 C 268.02 705.83 266.91 703.38 264.96 701.68 C 263.01 699.98 260.4 699.2 257.82 699.54 Z M 285.96 725.52 C 283.53 725.59 281.23 726.64 279.59 728.42 C 277.95 730.21 277.12 732.57 277.28 734.97 C 277.28 739.75 281.12 743.66 285.96 743.82 C 288.35 743.82 290.63 742.89 292.32 741.23 C 294 739.57 294.95 737.32 294.95 734.97 C 295.11 732.52 294.24 730.11 292.54 728.32 C 290.83 726.53 288.45 725.51 285.96 725.52 Z M 313.21 698.65 C 310.61 698.55 308.1 699.57 306.32 701.44 C 304.54 703.31 303.67 705.85 303.93 708.4 C 303.84 710.85 304.79 713.22 306.55 714.96 C 308.31 716.69 310.72 717.63 313.21 717.55 C 315.7 717.63 318.11 716.69 319.87 714.96 C 321.62 713.22 322.58 710.85 322.49 708.4 C 322.75 705.85 321.88 703.31 320.1 701.44 C 318.32 699.57 315.81 698.55 313.21 698.65 Z" fill="rgb(255, 255, 255)" stroke="rgb(0, 0, 0)" stroke-width="5.9" stroke-miterlimit="10" pointer-events="all"/></g></g><g data-cell-id="v9cHNtUJd11W1hqlJB93-7"><g><ellipse cx="463.5" cy="205.5" rx="202.5" ry="202.5" fill="url(#mx-gradient-f0db4f-1-00add8-1-e-0)" stroke="rgb(0, 0, 0)" stroke-width="9" pointer-events="all"/></g></g><g data-cell-id="v9cHNtUJd11W1hqlJB93-8"><g><rect x="346.5" y="88.5" width="234" height="234" fill="none" stroke="none" pointer-events="all"/><path d="M 375.75 290.59 C 368.42 290.59 362.45 284.62 362.45 277.3 C 362.45 269.97 368.42 264 375.75 264 C 383.08 264 389.05 269.97 389.05 277.3 C 389.05 284.62 383.08 290.59 375.75 290.59 Z M 569.86 205.5 C 569.86 264.15 522.15 311.86 463.5 311.86 C 439.14 311.86 415.74 303.47 396.89 288.28 C 398.7 284.9 399.66 281.13 399.68 277.3 C 399.68 264.1 388.94 253.36 375.75 253.36 C 362.56 253.36 351.82 264.1 351.82 277.3 C 351.82 290.49 362.56 301.23 375.75 301.23 C 381.12 301.23 386.02 299.39 390.02 296.39 C 410.8 313.2 436.62 322.5 463.5 322.5 C 528.01 322.5 580.5 270.01 580.5 205.5 Z M 551.25 120.41 C 558.58 120.41 564.55 126.38 564.55 133.7 C 564.55 141.03 558.58 147 551.25 147 C 543.92 147 537.95 141.03 537.95 133.7 C 537.95 126.38 543.92 120.41 551.25 120.41 Z M 463.5 99.14 C 487.86 99.14 511.26 107.53 530.11 122.72 C 528.3 126.1 527.34 129.87 527.32 133.7 C 527.32 146.9 538.06 157.64 551.25 157.64 C 564.44 157.64 575.18 146.9 575.18 133.7 C 575.18 120.51 564.44 109.77 551.25 109.77 C 545.88 109.77 540.98 111.61 536.98 114.61 C 516.2 97.8 490.38 88.5 463.5 88.5 C 398.99 88.5 346.5 140.99 346.5 205.5 L 357.14 205.5 C 357.14 146.85 404.85 99.14 463.5 99.14 Z M 452.86 188.33 L 484.3 205.41 L 452.86 222.64 Z M 444.83 174.82 C 443.21 175.78 442.23 177.52 442.23 179.39 L 442.23 231.61 C 442.23 233.48 443.22 235.22 444.83 236.19 C 445.66 236.67 446.59 236.92 447.55 236.93 C 448.44 236.92 449.32 236.7 450.1 236.27 L 497.96 210.06 C 499.67 209.13 500.73 207.34 500.73 205.39 C 500.73 203.44 499.66 201.65 497.95 200.72 L 450.09 174.72 C 448.43 173.83 446.44 173.86 444.83 174.82 Z M 516.68 236.21 L 463.5 266.91 L 410.32 236.21 L 410.32 174.79 L 463.5 144.09 L 516.68 174.79 Z M 466.16 133.34 C 464.51 132.39 462.49 132.39 460.84 133.34 L 402.34 167.12 C 400.7 168.07 399.68 169.82 399.68 171.72 L 399.68 239.28 C 399.68 241.18 400.7 242.93 402.34 243.88 L 460.84 277.66 C 462.49 278.61 464.51 278.61 466.16 277.66 L 524.66 243.88 C 526.3 242.93 527.32 241.18 527.32 239.28 L 527.32 171.72 C 527.32 169.82 526.3 168.07 524.66 167.12 Z" fill="#000000" stroke="none" pointer-events="all"/></g></g></g></g></g></svg>