<svg
version="1.1"
id="Capa_1"
xmlns="http://www.w3.org/2000/svg"
xmlns:xlink="http://www.w3.org/1999/xlink"
x="0px"
y="0px"
width="300px"
height="250px"
xml:space="preserve"
viewBox="0 0 600 500"
>
<g>
  <g>
    <path
      id="controller-b1"
      name="down"
      d="M114.003,255.595c-5.043,3.696-10.324,8.09-11.102,9.663c-1.353,2.705-3.244,17.252-2.889,22.24
   c0.073,1.053,0.306,4.26,13.972,4.266l0.042,3.06v-3.06c13.666-0.006,13.898-3.213,13.972-4.271
   c0.355-4.976-1.53-19.523-2.889-22.234C124.407,263.851,119.682,259.762,114.003,255.595z"
    />

    <rect
      id="controller-b5"
      name="select"
      x="227.994"
      y="238.771"
      width="18.898"
      height="7.711"
    />

    <path
      id="controller-b0"
      name="up"
      d="M114.003,232.84c5.686-4.167,10.404-8.256,11.108-9.669c1.353-2.699,3.244-17.246,2.889-22.24
   c-0.08-1.053-0.306-4.254-13.972-4.26c-13.708,0.006-13.935,3.207-14.015,4.26c-0.355,4.987,1.53,19.535,2.889,22.24
   C103.685,224.744,108.96,229.15,114.003,232.84z"
    />
    <path
      id="controller-b2"
      name="left"
      d="M92.962,233.11c-2.46-1.229-14.584-2.925-20.918-2.925c-0.502,0-0.937,0.012-1.31,0.042
   c-1.059,0.074-4.266,0.301-4.271,13.966c0.006,13.709,3.213,13.936,4.266,14.009c0.379,0.031,0.82,0.043,1.316,0.043
   c6.34,0,18.464-1.688,20.918-2.925c1.671-0.839,6.353-6.573,9.676-11.102C98.936,239.181,94.529,233.893,92.962,233.11z"
    />
    <path
      id="controller-b3"
      name="right"
      d="M157.284,230.234c-0.379-0.031-0.82-0.043-1.316-0.043c-6.34,0-18.464,1.689-20.924,2.925
   c-1.566,0.784-5.973,6.065-9.669,11.108c3.317,4.528,7.999,10.27,9.669,11.102c2.46,1.23,14.584,2.925,20.918,2.925
   c0.496,0,0.936-0.012,1.31-0.042c1.059-0.074,4.266-0.3,4.271-13.966c0-0.05,0-0.092,0-0.129
   C161.525,230.528,158.336,230.301,157.284,230.234z"
    />
    <circle id="controller-b15" cx="465.824" cy="194.529" r="19.866" />
    <circle id="controller-b13" cx="512.446" cy="241.152" r="19.865" />
    <circle id="controller-b12" cx="465.824" cy="287.774" r="19.865" />
    <circle id="controller-b14" cx="419.202" cy="241.152" r="19.865" />
    <polygon
      id="controller-b4"
      name="select"
      points="333.062,246.586
      349.171,241.751 333.062,237.381"
    />
    <path
      id="layout"
      d="M561.234,241.611c-2.441-18.305-10.171-52.075-43.531-75.264l-8.14-31.328c0,0-0.813-7.729-10.985-13.428
   c0,0,0.612-5.288-8.745-7.729c-9.357-2.442-31.127-7.117-56.549,1.426c0,0-3.868,1.016-3.66,6.714c0,0-12.001,5.899-14.443,16.885
   c-2.441,10.985-5.697,24.816-5.697,24.816h-36.916H211.195h-39.56c0,0-3.256-13.831-5.698-24.816s-14.443-16.885-14.443-16.885
   c0.202-5.698-3.66-6.714-3.66-6.714c-25.429-8.543-47.191-3.868-56.549-1.426c-9.357,2.441-8.746,7.729-8.746,7.729
   c-10.171,5.698-10.985,13.428-10.985,13.428l-8.14,31.328c-33.36,23.188-41.09,56.959-43.532,75.264
   C17.441,259.921,1.579,380.344,0.354,394.58c-1.218,14.241-2.032,67.534,46.788,75.264s74.45-36.615,74.45-36.615l32.956-57.161
   c73.636,57.161,108.624-20.545,108.624-20.545h54.774c0,0,34.988,77.706,108.624,20.545l32.956,57.161
   c0,0,25.631,44.345,74.45,36.615s48.005-61.028,46.787-75.264C579.546,380.338,563.677,259.916,561.234,241.611z M465.824,168.544
   c14.326,0,25.985,11.658,25.985,25.985c0,14.326-11.659,25.985-25.985,25.985c-14.327,0-25.985-11.659-25.985-25.985
   C439.839,180.203,451.497,168.544,465.824,168.544z

    M93.911,200.502c0.704-9.938,14.278-9.944,20.067-9.951c5.845,0.007,19.407,0.013,20.123,9.945
   c0.379,5.324-1.414,21.224-3.513,25.41c-1.775,3.55-9.804,9.633-14.578,13.036c-0.135,0.122-0.281,0.226-0.447,0.317
   c-0.483,0.282-1.022,0.423-1.554,0.423c-0.202,0-0.404-0.024-0.6-0.062c-0.238-0.049-0.471-0.122-0.691-0.22
   c-0.263-0.129-0.502-0.275-0.716-0.459c-3.207-2.277-12.663-9.211-14.572-13.036C95.325,221.72,93.525,205.821,93.911,200.502z

    M70.288,264.316c-9.938-0.704-9.945-14.278-9.945-20.073c0-5.839,0.006-19.413,9.951-20.117c0.496-0.036,1.083-0.055,1.75-0.055
   c5.655,0,19.529,1.506,23.66,3.568c3.825,1.909,10.759,11.377,13.036,14.584c0.202,0.238,0.374,0.508,0.496,0.808
   c0.166,0.397,0.245,0.82,0.239,1.236c-0.006,0.452-0.11,0.911-0.318,1.334c-0.116,0.227-0.257,0.44-0.416,0.63
   c-1.805,2.559-9.051,12.589-13.036,14.578c-4.125,2.062-18.005,3.568-23.66,3.568C71.377,264.371,70.784,264.353,70.288,264.316z
   
    M134.101,287.927c-0.71,9.944-14.278,9.951-20.067,9.957l0,0h-0.024c-5.82-0.006-19.388-0.013-20.092-9.957
   c-0.379-5.312,1.414-21.212,3.513-25.404c1.909-3.819,11.377-10.759,14.578-13.036c0.135-0.116,0.282-0.22,0.441-0.312
   c0.232-0.135,0.477-0.239,0.728-0.312c0.795-0.214,1.659-0.128,2.393,0.294c0.196,0.116,0.379,0.251,0.539,0.397
   c4.798,3.428,12.723,9.443,14.48,12.963C132.681,266.721,134.48,282.615,134.101,287.927z M155.968,264.371
   c-5.649,0-19.529-1.505-23.654-3.567c-3.99-1.989-11.242-12.044-13.036-14.584c-0.128-0.147-0.245-0.318-0.343-0.496
   c-0.293-0.532-0.422-1.132-0.385-1.72c0.024-0.373,0.116-0.74,0.281-1.096c0.123-0.257,0.275-0.495,0.459-0.71
   c2.295-3.219,9.211-12.649,13.023-14.559c4.131-2.062,18.005-3.568,23.66-3.568c0.661,0,1.254,0.019,1.756,0.055
   c9.872,0.704,9.945,14.101,9.945,19.958c0,0.049,0,0.092,0,0.135c-0.006,5.819-0.012,19.394-9.957,20.098
   C157.223,264.353,156.629,264.371,155.968,264.371z M200.111,364.892c-22.326,0-40.49-18.164-40.49-40.484
   c0-22.325,18.164-40.489,40.49-40.489s40.49,18.164,40.49,40.489C240.607,346.728,222.437,364.892,200.111,364.892z

    M253.013,247.712c0,2.692-2.191,4.89-4.89,4.89h-21.358c-2.699,0-4.89-2.19-4.89-4.89v-10.172c0-2.692,2.191-4.89,4.89-4.89
   h21.358c2.699,0,4.89,2.191,4.89,4.89V247.712z

    M332.708,253.08c-0.281,0.092-0.582,0.129-0.882,0.129c-2.692,0-4.89-2.191-4.89-4.891v-12.613c0-2.974,2.858-5.569,5.691-4.785
   l26.243,7.123c1.334,0.361,2.258,1.573,2.258,2.95c0,2.509-1.903,4.584-4.339,4.859L332.708,253.08z M381.362,364.892
   c-22.326,0-40.49-18.164-40.49-40.484c0-22.325,18.164-40.489,40.49-40.489c22.325,0,40.489,18.164,40.489,40.489
   C421.852,346.728,403.688,364.892,381.362,364.892z M419.202,267.137c-14.327,0-25.986-11.658-25.986-25.985
   s11.659-25.985,25.986-25.985c14.326,0,25.985,11.658,25.985,25.985C445.182,255.479,433.528,267.137,419.202,267.137z
   
    M465.824,313.759c-14.327,0-25.985-11.658-25.985-25.985s11.658-25.985,25.985-25.985c14.326,0,25.985,11.658,25.985,25.985
   C491.804,302.101,480.15,313.759,465.824,313.759z M512.446,267.137c-14.327,0-25.985-11.658-25.985-25.985
   s11.658-25.985,25.985-25.985s25.985,11.658,25.985,25.985C538.426,255.479,526.772,267.137,512.446,267.137z"
    />

    <rect
      id="controller-b8"
      x="83.5"
      y="110.0"
      width="70"
      height="20"
      rx="16.5"
      stroke-width="3"
    ></rect>

    <rect
      id="controller-b9"
      x="429.5"
      y="110.0"
      width="70"
      height="20"
      rx="16.5"
      stroke-width="3"
    ></rect>

    <rect
      id="controller-a3"
      x="99.994"
      y="50.0"
      height="50.898"
      width="35.5"
      fill="black"
      rx="19"
      ry="10"
    />

    <rect
      id="controller-a5"
      x="448.994"
      y="50.0"
      height="50.898"
      width="35.5"
      fill="black"
      rx="19"
      ry="10"
    />

    <circle
      id="controller-b6-bottom"
      name="left-stick"
      cx="200.000"
      cy="325.000"
      data-original-x-position="200.000"
      data-original-y-position="325.000"
      r="15"
      width="50.898"
      height="100.711"
      stroke="black"
      fill="black"
    />

    <circle
      id="controller-b6"
      name="left-stick"
      cx="200.000"
      cy="325.000"
      data-original-x-position="200.000"
      data-original-y-position="325.000"
      r="35"
      width="50.898"
      height="100.711"
      fill="rgb(105, 4, 4)"
    />

    <circle
      id="controller-b7-bottom"
      name="stick-right"
      cx="381.000"
      cy="325.000"
      data-original-x-position="381.000"
      data-original-y-position="325.000"
      r="15"
      width="50.898"
      height="100.711"
      stroke="black"
      fill="black"
    />

    <circle
      id="controller-b7"
      name="stick-right"
      cx="381.000"
      cy="325.000"
      data-original-x-position="381.000"
      data-original-y-position="325.000"
      r="35"
      width="50.898"
      height="100.711"
      fill="rgb(105, 4, 4)"
    />
  </g>
</g>
<!-- <g></g>
<g></g>
<g></g>
<g></g>
<g></g>
<g></g>
<g></g>
<g></g>
<g></g>
<g></g>
<g></g>
<g></g>
<g></g>
<g></g>
<g></g> -->
</svg>